<svg xmlns="http://www.w3.org/2000/svg" width="28" height="28"><defs><linearGradient id="c" x1="23.21" x2="-3.81" y1="-3.44" y2="40.24" gradientUnits="userSpaceOnUse"><stop offset="0" stop-color="#fff" stop-opacity=".25"/><stop offset="1" stop-color="#5084d1" stop-opacity=".25"/></linearGradient><filter id="a" width="48" height="50" x="-10" y="-12" filterUnits="userSpaceOnUse"><feOffset dy="2" in="SourceGraphic" result="FeOffset1071Out"/><feGaussianBlur in="FeOffset1071Out" result="FeGaussianBlur1072Out" stdDeviation="0.8 0.8"/></filter><mask id="b" width="2" height="2" x="-1" y="-1"><path fill="#fff" d="M2 0h24v24H2z"/><path d="M14.999 17.008a.98.98 0 01-.08.377c-.05.12-.12.228-.21.327a1.17 1.17 0 01-.33.209A.997.997 0 0114 18c-.13 0-.26-.03-.38-.08a1.127 1.127 0 01-.33-.208 1.14 1.14 0 01-.21-.327.98.98 0 01-.08-.377.98.98 0 01.08-.377.925.925 0 01.21-.327c.229-.227.58-.337.899-.268.07.01.13.029.19.06.06.02.12.05.17.089.06.03.11.08.16.119.09.09.16.198.21.327a.98.98 0 01.08.377zM15 6.992v5.95a.996.996 0 01-1 .993c-.553 0-1-.444-1-.992V6.992A.995.995 0 0114 6c.553 0 1 .443 1 .992zm5.648-4.984A11.957 11.957 0 0012.109.152a1.028 1.028 0 00-.156.015 11.93 11.93 0 00-7.76 4.912 11.925 11.925 0 00-2.014 8.96c.091.52.218 1.045.378 1.555a8.974 8.974 0 01-.458 6.478.998.998 0 001.168 1.39l4.483-1.225A11.896 11.896 0 0013.98 24c.795 0 1.596-.079 2.393-.24a11.92 11.92 0 007.625-5.119c3.663-5.508 2.16-12.97-3.35-16.633z"/></mask></defs><g filter="url(#a)"><path fill="none" d="M14.999 17.008a.98.98 0 01-.08.377c-.05.12-.12.228-.21.327a1.17 1.17 0 01-.33.209A.997.997 0 0114 18c-.13 0-.26-.03-.38-.08a1.127 1.127 0 01-.33-.208 1.14 1.14 0 01-.21-.327.98.98 0 01-.08-.377.98.98 0 01.08-.377.925.925 0 01.21-.327c.229-.227.58-.337.899-.268.07.01.13.029.19.06.06.02.12.05.17.089.06.03.11.08.16.119.09.09.16.198.21.327a.98.98 0 01.08.377zM15 6.992v5.95a.996.996 0 01-1 .993c-.553 0-1-.444-1-.992V6.992A.995.995 0 0114 6c.553 0 1 .443 1 .992zm5.648-4.984A11.957 11.957 0 0012.109.152a1.028 1.028 0 00-.156.015 11.93 11.93 0 00-7.76 4.912 11.925 11.925 0 00-2.014 8.96c.091.52.218 1.045.378 1.555a8.974 8.974 0 01-.458 6.478.998.998 0 001.168 1.39l4.483-1.225A11.896 11.896 0 0013.98 24c.795 0 1.596-.079 2.393-.24a11.92 11.92 0 007.625-5.119c3.663-5.508 2.16-12.97-3.35-16.633z" mask="url(&quot;#b&quot;)"/><path fill="#020202" fill-opacity=".14" d="M14.999 17.008a.98.98 0 01-.08.377c-.05.12-.12.228-.21.327a1.17 1.17 0 01-.33.209A.997.997 0 0114 18c-.13 0-.26-.03-.38-.08a1.127 1.127 0 01-.33-.208 1.14 1.14 0 01-.21-.327.98.98 0 01-.08-.377.98.98 0 01.08-.377.925.925 0 01.21-.327c.229-.227.58-.337.899-.268.07.01.13.029.19.06.06.02.12.05.17.089.06.03.11.08.16.119.09.09.16.198.21.327a.98.98 0 01.08.377zM15 6.992v5.95a.996.996 0 01-1 .993c-.553 0-1-.444-1-.992V6.992A.995.995 0 0114 6c.553 0 1 .443 1 .992zm5.648-4.984A11.957 11.957 0 0012.109.152a1.028 1.028 0 00-.156.015 11.93 11.93 0 00-7.76 4.912 11.925 11.925 0 00-2.014 8.96c.091.52.218 1.045.378 1.555a8.974 8.974 0 01-.458 6.478.998.998 0 001.168 1.39l4.483-1.225A11.896 11.896 0 0013.98 24c.795 0 1.596-.079 2.393-.24a11.92 11.92 0 007.625-5.119c3.663-5.508 2.16-12.97-3.35-16.633z"/></g><path fill="#fff" d="M14.999 17.008a.98.98 0 01-.08.377c-.05.12-.12.228-.21.327a1.17 1.17 0 01-.33.209A.997.997 0 0114 18c-.13 0-.26-.03-.38-.08a1.127 1.127 0 01-.33-.208 1.14 1.14 0 01-.21-.327.98.98 0 01-.08-.377.98.98 0 01.08-.377.925.925 0 01.21-.327c.229-.227.58-.337.899-.268.07.01.13.029.19.06.06.02.12.05.17.089.06.03.11.08.16.119.09.09.16.198.21.327a.98.98 0 01.08.377zM15 6.992v5.95a.996.996 0 01-1 .993c-.553 0-1-.444-1-.992V6.992A.995.995 0 0114 6c.553 0 1 .443 1 .992zm5.648-4.984A11.957 11.957 0 0012.109.152a1.028 1.028 0 00-.156.015 11.93 11.93 0 00-7.76 4.912 11.925 11.925 0 00-2.014 8.96c.091.52.218 1.045.378 1.555a8.974 8.974 0 01-.458 6.478.998.998 0 001.168 1.39l4.483-1.225A11.896 11.896 0 0013.98 24c.795 0 1.596-.079 2.393-.24a11.92 11.92 0 007.625-5.119c3.663-5.508 2.16-12.97-3.35-16.633z"/><path fill="url(#c)" d="M14.999 17.008a.98.98 0 01-.08.377c-.05.12-.12.228-.21.327a1.17 1.17 0 01-.33.209A.997.997 0 0114 18c-.13 0-.26-.03-.38-.08a1.127 1.127 0 01-.33-.208 1.14 1.14 0 01-.21-.327.98.98 0 01-.08-.377.98.98 0 01.08-.377.925.925 0 01.21-.327c.229-.227.58-.337.899-.268.07.01.13.029.19.06.06.02.12.05.17.089.06.03.11.08.16.119.09.09.16.198.21.327a.98.98 0 01.08.377zM15 6.992v5.95a.996.996 0 01-1 .993c-.553 0-1-.444-1-.992V6.992A.995.995 0 0114 6c.553 0 1 .443 1 .992zm5.648-4.984A11.957 11.957 0 0012.109.152a1.028 1.028 0 00-.156.015 11.93 11.93 0 00-7.76 4.912 11.925 11.925 0 00-2.014 8.96c.091.52.218 1.045.378 1.555a8.974 8.974 0 01-.458 6.478.998.998 0 001.168 1.39l4.483-1.225A11.896 11.896 0 0013.98 24c.795 0 1.596-.079 2.393-.24a11.92 11.92 0 007.625-5.119c3.663-5.508 2.16-12.97-3.35-16.633z"/></svg>